<svg width="776" height="380" viewBox="0 0 776 380" fill="none" xmlns="http://www.w3.org/2000/svg">
<path d="M715.481 269.121C711.719 280.637 698.733 290.87 702.613 299.34C704.089 302.559 705.57 305.926 706.252 309.365C706.694 311.416 706.768 313.53 706.469 315.607C705.07 324.575 696.764 330.532 689.039 335.171C688.563 335.456 688.081 335.747 687.599 336.038C680.28 340.469 672.615 345.57 670.263 353.749C668.958 358.292 669.534 363.15 668.993 367.848C668.481 372.166 667.03 376.316 664.743 380H615.416C611.037 375.124 611.401 366.928 614.734 361.179C618.302 355.026 624.328 350.844 629.766 346.295C634.463 342.363 639.042 337.63 640.835 331.857C641.12 330.943 641.33 330.008 641.464 329.059C641.899 325.935 641.664 309.977 647.025 300.153C655.314 284.985 668.758 288.72 672.867 280.162C674.443 276.883 675.801 236.598 701.99 244.04C704.544 244.73 706.931 245.938 709.008 247.591C711.085 249.243 712.806 251.306 714.069 253.652C715.331 255.999 716.107 258.58 716.35 261.24C716.593 263.899 716.297 266.581 715.481 269.121Z" fill="#C1D8ED"/>
<path d="M763.384 332.112C762.633 332.635 761.824 333.07 760.974 333.407C753.908 336.086 734.256 335.789 731.382 342.838C730.029 346.152 729.706 349.811 728.548 353.202C725.92 360.894 718.984 366.661 711.224 368.828C708.432 369.606 705.539 369.969 702.776 370.836C697.439 372.517 693.018 375.896 689.132 380H625.426C625.398 375.732 626.437 371.525 628.447 367.771C630.457 364.017 633.373 360.836 636.925 358.524C644.008 354.01 652.955 353.167 659.91 348.451C664.495 345.339 667.793 340.843 670.409 335.872C672.073 332.62 673.543 329.27 674.812 325.84C676.758 320.739 678.792 315.263 683.213 312.103C685.38 310.68 687.784 309.662 690.308 309.098C696.692 307.411 701.601 308.403 706.251 309.365C711.894 310.529 717.161 311.64 724.233 307.845C736.778 301.109 755.119 267.523 773.449 299.435C780.797 312.234 770.656 327.194 763.384 332.112Z" fill="#8DDBE0"/>
<path d="M60.5193 269.121C64.2816 280.637 77.2679 290.87 73.3881 299.34C71.912 302.559 70.4306 305.926 69.7492 309.365C69.3066 311.416 69.2327 313.53 69.5311 315.607C70.9302 324.575 79.2373 330.532 86.9611 335.171C87.4373 335.456 87.9193 335.747 88.402 336.038C95.7202 340.469 103.386 345.57 105.737 353.749C107.043 358.292 106.467 363.15 107.007 367.848C107.52 372.166 108.971 376.316 111.257 380H160.585C164.964 375.124 164.6 366.928 161.266 361.179C157.698 355.026 151.672 350.844 146.235 346.295C141.538 342.363 136.958 337.63 135.165 331.857C134.881 330.943 134.671 330.008 134.537 329.059C134.101 325.935 134.337 309.977 128.976 300.153C120.687 284.985 107.242 288.72 103.134 280.162C101.558 276.883 100.2 236.598 74.0112 244.04C71.4576 244.73 69.0698 245.938 66.9932 247.591C64.9167 249.243 63.1948 251.306 61.9325 253.652C60.6703 255.999 59.894 258.58 59.651 261.24C59.4081 263.899 59.7035 266.581 60.5193 269.121Z" fill="#C1D8ED"/>
<path d="M12.6154 332.112C13.3673 332.635 14.176 333.07 15.0256 333.407C22.0916 336.086 41.7437 335.789 44.6189 342.838C45.971 346.152 46.2943 349.811 47.4518 353.202C50.0801 360.894 57.0163 366.661 64.7766 368.828C67.5689 369.606 70.4611 369.969 73.2235 370.836C78.5612 372.517 82.9819 375.896 86.8677 380H150.574C150.602 375.732 149.563 371.525 147.553 367.771C145.543 364.016 142.627 360.836 139.075 358.524C131.992 354.01 123.044 353.167 116.09 348.451C111.505 345.339 108.207 340.843 105.591 335.872C103.927 332.62 102.457 329.27 101.188 325.84C99.2426 320.739 97.2086 315.263 92.788 312.103C90.6199 310.68 88.2164 309.662 85.6919 309.098C79.3078 307.411 74.3992 308.403 69.7498 309.365C64.1064 310.529 58.8392 311.64 51.7667 307.845C39.2218 301.109 20.8807 267.523 2.55185 299.435C-4.79695 312.234 5.34359 327.194 12.6154 332.112Z" fill="#8DDBE0"/>
<path d="M662.85 354.9H114.456C107.596 354.9 102.034 360.519 102.034 367.45V367.45C102.034 374.381 107.596 380 114.456 380H662.85C669.711 380 675.272 374.381 675.272 367.45V367.45C675.272 360.519 669.711 354.9 662.85 354.9Z" fill="#DEE8F5"/>
<path d="M618.443 0H157.023C146.919 0 138.728 8.27557 138.728 18.484V340.495C138.728 350.703 146.919 358.979 157.023 358.979H618.443C628.547 358.979 636.738 350.703 636.738 340.495V18.484C636.738 8.27557 628.547 0 618.443 0Z" fill="#DEE8F5"/>
<path d="M617.305 12.606H158.159C153.692 12.606 150.071 16.2648 150.071 20.7783V337.801C150.071 342.315 153.692 345.974 158.159 345.974H617.305C621.773 345.974 625.394 342.315 625.394 337.801V20.7783C625.394 16.2648 621.773 12.606 617.305 12.606Z" fill="white"/>
<path d="M607.873 31.1316H167.593V327.448H607.873V31.1316Z" fill="#F3F5FD"/>
<g opacity="0.72">
<path opacity="0.72" d="M220.284 68.3763H183.767V327.064H220.284V68.3763Z" fill="#C1D8ED"/>
<path opacity="0.72" d="M220.284 327.064H339.961L339.961 68.3763H220.284L220.284 327.064Z" fill="#DEE8F5"/>
<g opacity="0.53">
<path opacity="0.53" d="M225.678 321.671H334.566V231.296H225.678V321.671Z" fill="#F3F5FD"/>
</g>
<g opacity="0.53">
<path opacity="0.53" d="M225.678 120.888L334.566 120.888V73.9402L225.678 73.9402V120.888Z" fill="white"/>
</g>
<g opacity="0.53">
<path opacity="0.53" d="M225.678 173.188H334.566V126.24L225.678 126.24V173.188Z" fill="white"/>
</g>
<g opacity="0.53">
<path opacity="0.53" d="M225.678 225.488H334.566V178.54H225.678V225.488Z" fill="white"/>
</g>
<path opacity="0.72" d="M277.709 323.397H282.536V229.733H277.709V323.397Z" fill="#DEE8F5"/>
<g opacity="0.72">
<path opacity="0.72" d="M294.404 308.119C297.117 308.119 299.316 305.897 299.316 303.156C299.316 300.415 297.117 298.193 294.404 298.193C291.691 298.193 289.492 300.415 289.492 303.156C289.492 305.897 291.691 308.119 294.404 308.119Z" fill="white"/>
<path opacity="0.72" d="M265.84 308.119C268.553 308.119 270.753 305.897 270.753 303.156C270.753 300.415 268.553 298.193 265.84 298.193C263.127 298.193 260.928 300.415 260.928 303.156C260.928 305.897 263.127 308.119 265.84 308.119Z" fill="white"/>
</g>
<g opacity="0.72">
<path opacity="0.72" d="M314.19 135.628V142.999V173.188H275.837V142.999V135.628H314.19Z" fill="#C1D8ED"/>
<path opacity="0.72" d="M325.826 142.999H287.473V173.188H325.826V142.999Z" fill="#DEE8F5"/>
<path opacity="0.72" d="M325.826 142.999H287.473V145.262H325.826V142.999Z" fill="#C1D8ED"/>
<path opacity="0.72" d="M287.473 142.999H325.826V135.628H287.473V142.999Z" fill="#DEE8F5"/>
<path opacity="0.72" d="M302.485 153.596H310.814C311.35 153.596 311.784 153.157 311.784 152.616V150.043C311.784 149.502 311.35 149.063 310.814 149.063H302.485C301.949 149.063 301.515 149.502 301.515 150.043V152.616C301.515 153.157 301.949 153.596 302.485 153.596Z" fill="white"/>
</g>
<g opacity="0.72">
<path opacity="0.72" d="M271.175 140.739V147.108V173.188H238.041V147.108V140.739H271.175Z" fill="#C1D8ED"/>
<path opacity="0.72" d="M282.035 147.108H248.901V173.188H282.035V147.108Z" fill="#DEE8F5"/>
<path opacity="0.72" d="M282.035 147.108H248.901V149.063H282.035V147.108Z" fill="#C1D8ED"/>
<path opacity="0.72" d="M248.901 147.108H282.035V140.739H248.901V147.108Z" fill="#DEE8F5"/>
<path opacity="0.72" d="M261.871 156.262H269.065C269.528 156.262 269.904 155.883 269.904 155.415V153.193C269.904 152.725 269.528 152.346 269.065 152.346H261.871C261.408 152.346 261.032 152.725 261.032 153.193V155.415C261.032 155.883 261.408 156.262 261.871 156.262Z" fill="white"/>
</g>
<g opacity="0.72">
<path opacity="0.72" d="M332.047 91.2109L327.035 90.0139L320.752 116.864L325.764 118.061L332.047 91.2109Z" fill="white"/>
<g opacity="0.72">
<path opacity="0.72" d="M321.524 87.9278L318.741 88.4465L323.043 112.014L325.826 111.495L321.524 87.9278Z" fill="#C1D8ED"/>
<path opacity="0.72" d="M321.522 87.919L318.743 88.4536L319.232 91.0528L322.012 90.5183L321.522 87.919Z" fill="#DEE8F5"/>
</g>
<path opacity="0.72" d="M330.138 93.9205L321.122 117.043L322.667 117.658L331.683 94.5354L330.138 93.9205Z" fill="#C1D8ED"/>
<path opacity="0.72" d="M332.111 104.037H318.519V121.586H332.111V104.037Z" fill="#C1D8ED"/>
</g>
<g opacity="0.72">
<path opacity="0.72" d="M311.33 90.3585H299.798V121.246H311.33V90.3585Z" fill="#C1D8ED"/>
<path opacity="0.72" d="M300.953 86.1078H294.782V121.245H300.953V86.1078Z" fill="#DEE8F5"/>
<path opacity="0.72" d="M294.782 88.0915H285.181V121.246H294.782V88.0915Z" fill="white"/>
<path opacity="0.72" d="M261.89 88.0915H256.281V121.246H261.89V88.0915Z" fill="#DEE8F5"/>
<path opacity="0.72" d="M272.902 90.4592L262.311 95.6698L274.59 121.147L285.181 115.936L272.902 90.4592Z" fill="#DEE8F5"/>
<path opacity="0.72" d="M256.324 90.5456H244.792V121.433H256.324V90.5456Z" fill="#C1D8ED"/>
<path opacity="0.72" d="M245.947 86.2959H239.776V121.433H245.947V86.2959Z" fill="#DEE8F5"/>
<path opacity="0.72" d="M239.776 88.2786H230.175V121.433H239.776V88.2786Z" fill="#C1D8ED"/>
</g>
<g opacity="0.72">
<path opacity="0.72" d="M305.342 193.812L299.983 192.14L290.298 223.818L295.658 225.49L305.342 193.812Z" fill="#DEE8F5"/>
<path opacity="0.72" d="M246.627 194.601H235.095V225.488H246.627V194.601Z" fill="#C1D8ED"/>
<path opacity="0.72" d="M251.643 190.35H245.473V225.487H251.643V190.35Z" fill="white"/>
<path opacity="0.72" d="M261.244 192.334H251.643V225.488H261.244V192.334Z" fill="#DEE8F5"/>
<path opacity="0.72" d="M290.145 192.334H284.535V225.488H290.145V192.334Z" fill="#DEE8F5"/>
<path opacity="0.72" d="M284.116 200.01L273.525 194.8L261.245 220.277L271.836 225.487L284.116 200.01Z" fill="white"/>
</g>
<g opacity="0.72">
<path opacity="0.72" d="M308.182 208.978C308.298 209.188 308.453 209.374 308.64 209.524C308.827 209.674 309.041 209.785 309.27 209.851C309.5 209.917 309.74 209.937 309.976 209.909C310.213 209.882 310.443 209.807 310.651 209.69C310.953 209.588 311.275 209.564 311.588 209.621C311.902 209.678 312.196 209.814 312.443 210.016C313.465 210.97 313.946 211.719 314.053 212.537H323.611C323.647 211.955 323.721 211.376 323.833 210.803C324.09 209.241 324.82 207.798 325.921 206.671C326.182 206.383 326.533 206.192 326.916 206.131C327.13 206.24 327.364 206.304 327.603 206.321C327.842 206.338 328.082 206.307 328.309 206.229C328.536 206.152 328.746 206.029 328.926 205.87C329.106 205.71 329.253 205.516 329.358 205.298C329.464 205.081 329.526 204.844 329.54 204.603C329.555 204.361 329.522 204.119 329.443 203.89C329.365 203.661 329.242 203.45 329.082 203.27C328.923 203.089 328.729 202.942 328.513 202.838C326.975 202.066 325.035 202.501 323.457 203.974C322.969 204.432 322.53 204.941 322.149 205.493C322.294 204.557 322.521 203.635 322.826 202.739C323.19 201.608 323.86 200.601 324.76 199.834C325.144 199.539 325.396 199.102 325.461 198.619C325.526 198.137 325.399 197.648 325.107 197.26C324.815 196.872 324.383 196.618 323.905 196.552C323.428 196.486 322.944 196.615 322.56 196.91C321.095 198.101 320 199.693 319.407 201.495C319.341 201.677 319.279 201.862 319.223 202.05C318.092 199.204 316.935 196.796 314.599 195.409C314.184 195.168 313.692 195.103 313.229 195.227C312.766 195.351 312.371 195.654 312.128 196.071C311.886 196.488 311.815 196.984 311.933 197.453C312.051 197.922 312.346 198.325 312.756 198.574C314.183 199.422 315.036 201.334 315.999 203.79C314.938 202.551 313.667 201.513 312.245 200.726C312.036 200.605 311.804 200.528 311.565 200.499C311.325 200.47 311.082 200.489 310.85 200.556C310.618 200.623 310.402 200.735 310.213 200.888C310.025 201.04 309.868 201.229 309.753 201.443C309.637 201.656 309.565 201.892 309.54 202.134C309.516 202.377 309.539 202.622 309.61 202.855C309.68 203.088 309.795 203.305 309.949 203.492C310.103 203.68 310.293 203.835 310.506 203.948C311.614 204.563 312.595 205.385 313.4 206.37C312.687 206.049 311.912 205.892 311.132 205.911C310.351 205.93 309.585 206.124 308.888 206.48C308.467 206.717 308.156 207.113 308.023 207.581C307.891 208.049 307.948 208.552 308.182 208.978Z" fill="#8DDBE0"/>
<path opacity="0.72" d="M327.184 212.537H310.295V217.499H327.184V212.537Z" fill="#DEE8F5"/>
<path opacity="0.72" d="M310.297 217.498V222.936C310.297 223.614 310.563 224.263 311.037 224.742C311.511 225.221 312.154 225.49 312.824 225.49H324.666C325.336 225.49 325.979 225.221 326.453 224.742C326.927 224.263 327.193 223.614 327.193 222.936V217.498H310.297Z" fill="#C1D8ED"/>
</g>
</g>
<path d="M568.246 53.6138H368.166V312.147H568.246V53.6138Z" fill="#C1D8ED"/>
<path d="M553.025 193.565H383.387V296.48H553.025V193.565Z" fill="#F3F5FD"/>
<path d="M535.575 245.055C535.574 250.396 534.36 255.665 532.027 260.457C529.693 265.249 526.303 269.436 522.116 272.696C517.929 275.956 513.058 278.201 507.876 279.26C502.695 280.319 497.343 280.163 492.231 278.803C487.119 277.443 482.385 274.916 478.391 271.417C474.398 267.918 471.253 263.54 469.198 258.62C467.142 253.699 466.232 248.368 466.537 243.037C466.842 237.705 468.353 232.515 470.955 227.867L501.027 245.055L534.594 236.795H534.602C535.251 239.499 535.578 242.272 535.575 245.055Z" fill="#C1D8ED"/>
<path d="M534.598 236.796L501.025 245.056L514.414 212.875C519.394 214.992 523.813 218.259 527.318 222.413C530.823 226.567 533.316 231.493 534.598 236.796Z" fill="#FDB754"/>
<path d="M446.916 221.016H401.049V228.666H446.916V221.016Z" fill="#C1D8ED"/>
<path d="M446.916 241.198H401.049V248.848H446.916V241.198Z" fill="#C1D8ED"/>
<path d="M446.916 261.379H401.049V269.029H446.916V261.379Z" fill="#C1D8ED"/>
<path d="M514.416 212.874L501.027 245.055L470.956 227.867C475.126 220.425 481.855 214.788 489.865 212.024C497.876 209.261 506.612 209.563 514.416 212.874Z" fill="white"/>
<path d="M393.573 306.364H386.272V327.448H393.573V306.364Z" fill="#C1D8ED"/>
<path d="M550.143 306.364H542.836V327.448H550.143V306.364Z" fill="#C1D8ED"/>
<path d="M553.025 69.2809H383.387V180.101H553.025V69.2809Z" fill="#F3F5FD"/>
<path d="M540.942 167.988H394.986C394.905 167.988 394.825 167.972 394.75 167.941C394.675 167.909 394.607 167.863 394.549 167.805C394.492 167.747 394.447 167.678 394.416 167.603C394.385 167.527 394.369 167.446 394.369 167.364V82.5199C394.365 82.4358 394.379 82.3517 394.408 82.2728C394.437 82.194 394.482 82.1219 394.54 82.0611C394.598 82.0002 394.667 81.9518 394.743 81.9187C394.82 81.8856 394.903 81.8685 394.986 81.8685C395.07 81.8685 395.152 81.8856 395.229 81.9187C395.305 81.9518 395.375 82.0002 395.432 82.0611C395.49 82.1219 395.535 82.194 395.564 82.2728C395.594 82.3517 395.607 82.4358 395.603 82.5199V166.738H540.942C541.026 166.734 541.109 166.748 541.187 166.777C541.265 166.807 541.336 166.852 541.397 166.911C541.457 166.969 541.505 167.039 541.538 167.116C541.57 167.194 541.587 167.277 541.587 167.362C541.587 167.446 541.57 167.529 541.538 167.607C541.505 167.684 541.457 167.754 541.397 167.812C541.336 167.871 541.265 167.916 541.187 167.946C541.109 167.975 541.026 167.989 540.942 167.985V167.988Z" fill="#C1D8ED"/>
<path d="M399.819 161.751C399.694 161.752 399.571 161.713 399.467 161.641C399.364 161.569 399.284 161.466 399.24 161.347C399.196 161.228 399.189 161.098 399.219 160.975C399.25 160.852 399.318 160.741 399.413 160.657L438.56 126.14C438.671 126.043 438.813 125.988 438.96 125.986C439.107 125.985 439.25 126.037 439.363 126.132L451.076 136.044L484.034 111.924C484.139 111.848 484.265 111.807 484.395 111.807C484.524 111.807 484.65 111.848 484.755 111.924L504.056 125.831L535.722 99.9919C535.85 99.8928 536.011 99.8482 536.171 99.8675C536.331 99.8868 536.477 99.9685 536.578 100.095C536.68 100.222 536.728 100.384 536.713 100.546C536.698 100.708 536.62 100.858 536.498 100.963L504.467 127.099C504.362 127.184 504.232 127.233 504.098 127.237C503.963 127.241 503.831 127.201 503.721 127.122L484.399 113.2L451.411 137.342C451.3 137.423 451.164 137.465 451.027 137.46C450.89 137.455 450.758 137.404 450.652 137.314L438.975 127.433L400.225 161.596C400.113 161.695 399.969 161.751 399.819 161.751Z" fill="#C1D8ED"/>
<path d="M534.901 104.286C536.492 104.286 537.782 102.982 537.782 101.375C537.782 99.7666 536.492 98.4632 534.901 98.4632C533.309 98.4632 532.019 99.7666 532.019 101.375C532.019 102.982 533.309 104.286 534.901 104.286Z" fill="#C1D8ED"/>
<g opacity="0.77">
<g opacity="0.77">
<path opacity="0.77" d="M540.942 89.5353H394.572V89.9511H540.942V89.5353Z" fill="#C1D8ED"/>
<path opacity="0.77" d="M540.942 102.361H394.572V102.777H540.942V102.361Z" fill="#C1D8ED"/>
<path opacity="0.77" d="M540.942 115.186H394.572V115.602H540.942V115.186Z" fill="#C1D8ED"/>
<path opacity="0.77" d="M540.942 128.012H394.572V128.428H540.942V128.012Z" fill="#C1D8ED"/>
<path opacity="0.77" d="M540.942 140.838H394.572V141.253H540.942V140.838Z" fill="#C1D8ED"/>
<path opacity="0.77" d="M540.942 153.663H394.572V154.078H540.942V153.663Z" fill="#C1D8ED"/>
</g>
</g>
<path d="M329.279 327.448H292.138C290.41 317.53 288.582 307.653 286.554 297.877C285.725 307.267 284.825 317.179 283.873 327.448H243.693C244.451 315.011 245.145 303.074 245.756 291.908C246.179 284.116 247.179 265.787 247.778 254.734C247.878 252.893 247.967 251.248 248.037 249.894C248.178 247.358 248.261 245.82 248.261 245.82L279.152 247.75L298.034 248.926L318.08 250.179L318.304 251.729L318.798 255.12L319.044 255.043C319.091 255.299 319.138 255.554 319.185 255.815C323.453 278.859 326.446 303.169 329.279 327.448Z" fill="#55AFFC"/>
<path d="M269.654 145.142C269.654 145.142 276.75 141.341 275.166 121.817L289.828 119.07C289.828 119.07 288.182 136.574 295.599 142.132L269.654 145.142Z" fill="#EDA59F"/>
<g opacity="0.15">
<path opacity="0.15" d="M292.594 138.473L280.413 129.059L289.981 128.959C290.346 132.212 291.099 135.703 292.594 138.473Z" fill="black"/>
</g>
<path d="M266.847 114.246C267.862 120.17 271.061 125.779 276.233 127.692C282.372 129.964 286.943 130.702 293.999 130.117C310.047 128.788 306.873 91.914 299.254 84.7519C291.636 77.5898 269.268 82.125 266.548 94.105C265.141 100.301 265.88 108.608 266.847 114.246Z" fill="#EDA59F"/>
<path d="M289.807 109.684C290.542 109.684 291.137 109.082 291.137 108.34C291.137 107.598 290.542 106.997 289.807 106.997C289.073 106.997 288.478 107.598 288.478 108.34C288.478 109.082 289.073 109.684 289.807 109.684Z" fill="#0F1011"/>
<path d="M300.299 108.814C301.033 108.814 301.629 108.213 301.629 107.471C301.629 106.729 301.033 106.127 300.299 106.127C299.564 106.127 298.969 106.729 298.969 107.471C298.969 108.213 299.564 108.814 300.299 108.814Z" fill="#0F1011"/>
<path d="M302.603 104.608H302.595L299.072 104.563C298.907 104.562 298.748 104.495 298.632 104.375C298.515 104.256 298.451 104.095 298.452 103.928C298.453 103.76 298.52 103.6 298.638 103.483C298.756 103.365 298.915 103.3 299.081 103.301H299.088L302.611 103.345C302.776 103.346 302.935 103.414 303.051 103.533C303.168 103.652 303.233 103.813 303.232 103.98C303.231 104.148 303.164 104.308 303.046 104.426C302.928 104.543 302.769 104.609 302.603 104.608Z" fill="#0F1011"/>
<path d="M286.937 105.906C286.782 105.908 286.632 105.852 286.516 105.749C286.4 105.646 286.326 105.503 286.308 105.348C286.289 105.193 286.329 105.037 286.418 104.91C286.507 104.782 286.64 104.693 286.791 104.658L290.265 103.814C290.345 103.793 290.429 103.788 290.511 103.8C290.593 103.811 290.672 103.84 290.743 103.883C290.815 103.926 290.877 103.983 290.926 104.05C290.975 104.118 291.011 104.195 291.03 104.276C291.05 104.358 291.053 104.442 291.04 104.525C291.026 104.608 290.997 104.687 290.953 104.758C290.909 104.83 290.852 104.891 290.784 104.94C290.716 104.988 290.64 105.023 290.559 105.041L287.085 105.885C287.037 105.898 286.987 105.905 286.937 105.906Z" fill="#0F1011"/>
<path d="M276.026 126.985C275.721 127.97 275.508 128.399 274.63 127.872C271.182 125.802 264.342 121.3 261.697 104.43C259.329 89.3138 268.559 83.0794 275.919 80.8546C282.263 78.9374 295.472 80.2922 302.601 84.2079C307.892 87.1127 304.019 94.9032 304.019 94.9032C301.374 95.0267 301.952 87.9294 295.708 87.9294C290.881 87.9294 286.629 95.1455 282.109 95.3373C277.972 95.5155 277.123 98.0611 277.269 99.6914C278.161 109.6 277.103 123.502 276.026 126.985Z" fill="#0F1011"/>
<path d="M282.89 111.627C282.95 112.373 282.865 113.123 282.639 113.835C282.412 114.547 282.049 115.207 281.57 115.778C281.091 116.348 280.506 116.818 279.847 117.159C279.188 117.501 278.47 117.708 277.732 117.769C276.994 117.831 276.251 117.744 275.547 117.515C274.842 117.287 274.188 116.92 273.624 116.436C273.059 115.952 272.595 115.36 272.257 114.695C271.918 114.03 271.713 113.304 271.653 112.558C271.398 109.423 273.699 106.519 276.81 106.416C280.828 106.284 282.635 108.492 282.89 111.627Z" fill="#EDA59F"/>
<g opacity="0.15">
<path opacity="0.15" d="M295.711 115.792C295.601 115.792 295.495 115.752 295.412 115.679C295.328 115.607 295.274 115.507 295.257 115.397C295.241 115.288 295.264 115.176 295.322 115.082C295.381 114.988 295.471 114.918 295.575 114.885L298.28 114.046L296.387 109.79C296.342 109.678 296.341 109.554 296.385 109.442C296.429 109.33 296.515 109.24 296.624 109.19C296.732 109.141 296.856 109.136 296.968 109.177C297.08 109.218 297.172 109.301 297.224 109.41L299.33 114.144C299.356 114.204 299.37 114.269 299.37 114.335C299.37 114.401 299.356 114.466 299.329 114.526C299.302 114.586 299.263 114.639 299.214 114.683C299.165 114.726 299.108 114.759 299.046 114.778L295.844 115.771C295.801 115.785 295.756 115.792 295.711 115.792Z" fill="black"/>
</g>
<path d="M290.423 118.921C290.423 118.921 295.331 119.444 298.77 118.229C298.77 118.229 298.743 121.496 294.859 121.817C290.974 122.139 290.423 118.921 290.423 118.921Z" fill="white"/>
<path d="M303.041 84.7097C307.799 87.9294 306.862 94.0973 305.969 99.4491H300.079L297.61 90.7867L294.597 99.4491L271.633 100.254L274.402 88.7478L303.041 84.7097Z" fill="#0F1011"/>
<path d="M259.858 132.057C266.957 132.057 272.712 126.243 272.712 119.07C272.712 111.898 266.957 106.084 259.858 106.084C252.759 106.084 247.004 111.898 247.004 119.07C247.004 126.243 252.759 132.057 259.858 132.057Z" fill="#0F1011"/>
<path d="M234.324 266.22C234.324 268.984 235.768 278.221 233.446 278.881C232.053 279.278 230.408 272.391 230.408 272.391L234.324 266.22Z" fill="#EDA59F"/>
<path d="M223.359 264.77C223.359 264.77 215.776 283.419 224.426 294.135C224.646 294.407 224.943 294.606 225.278 294.705C225.612 294.805 225.968 294.8 226.3 294.692C226.631 294.584 226.923 294.377 227.136 294.099C227.35 293.82 227.476 293.483 227.497 293.132C227.917 285.908 229.359 271.069 234.074 272.803V261.15L223.359 264.77Z" fill="#EDA59F"/>
<path d="M238.34 269.407L218.546 266.437L226.926 209.37C227.002 208.849 227.119 208.336 227.275 207.834L244.057 153.649L263.154 159.687L246.606 213.12L238.34 269.407Z" fill="#2F3235"/>
<path d="M323.513 248.365C319.669 257.295 246.128 261.003 245.118 245.296C244.476 235.301 252.558 225.964 252.558 206.484C252.558 187.012 238.089 167.438 252.544 152.834C256.738 148.597 259.326 141.16 268.155 141.151C268.815 146.352 300.075 146.371 300.31 141.269C301.504 141.288 302.43 141.306 303.009 141.334C333.46 142.66 317.773 177.753 317.479 203.474C317.123 233.574 327.478 239.167 323.513 248.365Z" fill="white"/>
<path d="M300.39 141.107C300.151 146.207 297.407 153.708 288.936 154.274C277.649 155.025 268.89 146.188 268.231 140.987H268.259C279.373 140.987 293.91 141.005 300.39 141.107Z" fill="#EDA59F"/>
<path d="M369.747 146.204C369.747 146.204 369.885 135.068 377.764 135.648C382.735 136.013 406.353 134.906 406.705 137.079C407.575 142.457 385.97 143.771 384.01 148.783L369.747 146.204Z" fill="#EDA59F"/>
<path d="M374.974 136.008C374.974 136.008 385.94 132.391 388.636 133.038C391.022 133.611 386.049 137.535 386.049 137.535L374.974 136.008Z" fill="#EDA59F"/>
<path d="M368.822 139.699L349.176 176.76L318.926 146.945C317.619 145.751 312.539 141.414 305.251 141.132C305.251 141.132 296.057 141.086 296.08 141.037C295.36 142.714 296.411 175.955 297.328 194.203C298.331 213.956 297.3 238.624 298.233 252.802C298.295 253.734 298.548 254.642 298.975 255.47C299.403 256.297 299.996 257.026 300.716 257.61C301.437 258.194 302.27 258.621 303.162 258.863C304.055 259.105 304.987 259.158 305.901 259.017C315.786 257.489 323.492 254.886 324.616 252.276C328.581 243.078 319.432 233.489 319.79 203.392C319.79 203.218 319.797 203.041 319.8 202.866L319.865 203.227C319.957 195.127 321.317 186.077 322.266 177.439L344.892 199.737C345.834 200.664 346.953 201.388 348.182 201.863C349.41 202.338 350.721 202.555 352.035 202.5C353.746 202.404 355.402 201.858 356.84 200.917C358.278 199.977 359.449 198.673 360.237 197.136L385.811 148.891L368.822 139.699Z" fill="#2F3235"/>
<path d="M251.176 207.092C251.176 226.573 242.458 235.298 243.1 245.294C243.496 251.537 246.654 259.435 270.472 261.127C272.4 261.264 274.306 260.648 275.798 259.407C277.29 258.165 278.252 256.393 278.488 254.455C283.053 216.108 274.746 165.04 272.412 147.817C271.037 140.466 270.714 140.914 267.263 140.911C258.435 140.921 252.085 143.893 247.891 148.13C233.438 162.734 251.176 187.62 251.176 207.092Z" fill="#2F3235"/>
<path d="M264.512 162.936L266.789 155.398L262.402 152.495L264.891 140.973C268.156 140.801 270.626 140.813 271.571 140.85C273.738 148.165 277.162 180.58 278.007 192.847L264.512 162.936Z" fill="#2F3235"/>
<g opacity="0.24">
<path opacity="0.24" d="M264.512 162.936L266.789 155.398L262.402 152.495L264.891 140.973C268.156 140.801 270.626 140.813 271.571 140.85C273.738 148.165 277.162 180.58 278.007 192.847L264.512 162.936Z" fill="white"/>
</g>
<path d="M302.508 155.398L306.821 162.009L297.233 192.407C297.233 192.407 295.031 149.58 295.918 140.993C295.918 140.993 298.224 141.045 299.728 141.023C301.613 140.996 303.305 141.048 303.305 141.048L306.895 152.496L302.508 155.398Z" fill="#2F3235"/>
<g opacity="0.24">
<path opacity="0.24" d="M302.508 155.398L306.821 162.009L297.233 192.407C297.233 192.407 295.031 149.58 295.918 140.993C295.918 140.993 298.224 141.045 299.728 141.023C301.613 140.996 303.305 141.048 303.305 141.048L306.895 152.496L302.508 155.398Z" fill="white"/>
</g>
</svg>
